HIERARCHY
ROOT hip
{
	OFFSET 0.000000 0.000000 0.000000 
	CHANNELS 6 Xposition Yposition Zposition Xrotation Zrotation Yrotation
	JOINT abdomen
	{
		OFFSET 0.000000 3.402643 0.000000 
		CHANNELS 3 Xrotation Zrotation Yrotation
		JOINT chest
		{
			OFFSET 0.000000 8.438565 -0.680529 
			CHANNELS 3 Xrotation Zrotation Yrotation
			JOINT neck
			{
				OFFSET 0.000000 10.207942 -0.272212 
				CHANNELS 3 Xrotation Zrotation Yrotation
				JOINT head
				{
					OFFSET 0.000000 3.130431 0.000000 
					CHANNELS 3 Xrotation Zrotation Yrotation
					End Site
					{
						OFFSET 0.000000 3.130435 0.000000 
					}
				}
			}
			JOINT lCollar
			{
				OFFSET 3.470700 6.669187 -0.816635 
				CHANNELS 3 Yrotation Zrotation Xrotation
				JOINT lShldr
				{
					OFFSET 3.198488 0.000000 0.000000 
					CHANNELS 3 Zrotation Yrotation Xrotation
					JOINT lForeArm
					{
						OFFSET 10.139888 0.000000 0.000000 
						CHANNELS 3 Yrotation Zrotation Xrotation
						JOINT lHand
						{
							OFFSET 8.370511 0.000000 0.000000 
							CHANNELS 3 Zrotation Yrotation Xrotation
							End Site
							{
								OFFSET 4.083176 0.000000 0.000000 
							}
						}
					}
				}
			}
			JOINT rCollar
			{
				OFFSET -3.470700 6.669187 -0.816635 
				CHANNELS 3 Yrotation Zrotation Xrotation
				JOINT rShldr
				{
					OFFSET -3.198488 0.000000 0.000000 
					CHANNELS 3 Zrotation Yrotation Xrotation
					JOINT rForeArm
					{
						OFFSET -10.139888 0.000000 0.000000 
						CHANNELS 3 Yrotation Zrotation Xrotation
						JOINT rHand
						{
							OFFSET -8.370511 0.000000 0.000000 
							CHANNELS 3 Zrotation Yrotation Xrotation
							End Site
							{
								OFFSET -4.083176 0.000000 0.000000 
							}
						}
					}
				}
			}
		}
	}
	JOINT lThigh
	{
		OFFSET 5.308129 -1.633274 1.361059 
		CHANNELS 3 Xrotation Zrotation Yrotation
		JOINT lShin
		{
			OFFSET -2.041588 -20.007561 0.000000 
			CHANNELS 3 Xrotation Zrotation Yrotation
			JOINT lFoot
			{
				OFFSET 0.000000 -19.190928 -1.224953 
				CHANNELS 3 Xrotation Yrotation Zrotation
				End Site
				{
					OFFSET 0.000000 -2.449906 4.627600 
				}
			}
		}
	}
	JOINT rThigh
	{
		OFFSET -5.308129 -1.633274 1.361059 
		CHANNELS 3 Xrotation Zrotation Yrotation
		JOINT rShin
		{
			OFFSET 2.041588 -20.007561 0.000000 
			CHANNELS 3 Xrotation Zrotation Yrotation
			JOINT rFoot
			{
				OFFSET 0.000000 -19.190928 -1.224953 
				CHANNELS 3 Xrotation Yrotation Zrotation
				End Site
				{
					OFFSET 0.000000 -2.449906 4.627600 
				}
			}
		}
	}
}
MOTION
Frames: 13
Frame Time: 0.016667
-51.544819 34.092182 0.313366 9.447280 -7.958410 46.413799 -13.649600 0.806551 -4.396460 17.260300 3.256330 -2.316050 -11.173400 12.255400 -18.058100 4.559310 9.666350 -7.399250 2.000000 -2.000000 0.000000 130.960007 -101.753998 28.620600 91.533798 -0.210929 0.156240 0.045549 -0.017114 -143.044998 -2.000000 2.000000 0.000000 53.601398 21.068001 170.296997 -109.931999 0.171570 0.109592 -0.061143 0.046024 -153.591995 -52.205856 19.390310 12.426543 93.705795 -2.274204 4.930865 -19.626404 -3.699713 -2.209112 -57.974194 -9.327604 -0.452837 90.937126 1.892781 -4.952446 -0.643751 24.108706 -0.834800 
-51.585262 34.843163 0.281136 9.237210 -7.828140 47.920399 -13.992100 1.021340 -5.184410 17.763201 4.896550 -2.738590 -9.023750 12.765800 -17.552900 5.431850 9.789050 -7.121680 2.000000 -2.000000 0.000000 104.834999 -102.502998 61.731400 87.070801 -0.221836 0.136584 0.044797 -0.007245 -139.509995 -2.000000 2.000000 0.000000 -119.343002 167.850006 -4.617620 -109.610001 0.172242 0.109834 -0.059910 0.041684 -151.979996 -46.163044 19.046616 12.947416 92.776283 -2.097704 4.915108 -16.592243 -3.701430 -1.538448 -59.408684 -6.301810 4.851612 89.005981 1.643991 -4.905363 -2.653121 19.683779 -0.161207 
-51.581894 35.066601 0.298973 8.999230 -7.765750 48.626999 -14.622800 0.469536 -5.755480 17.742399 5.179330 -3.066600 -7.983020 12.745900 -16.990400 5.570130 9.719830 -6.963530 2.000000 -2.000000 0.000000 -93.891899 -74.765800 -92.705704 81.934097 -0.234032 0.135411 0.044758 -0.003423 -134.656006 -2.000000 2.000000 0.000000 -112.383003 177.154999 -1.340390 -107.471001 0.176734 0.111340 -0.058710 0.036938 -150.231995 -39.957764 18.746714 14.224593 90.870583 -1.797476 4.851478 -13.220016 -4.089891 -1.069919 -61.344749 -2.402447 10.290798 86.919746 1.415238 -4.853046 -4.744869 10.857668 -0.166322 
-51.483932 35.478436 0.284909 8.938080 -8.124150 48.423000 -15.285400 0.338996 -6.586910 17.944201 6.087460 -3.489590 -6.523150 12.542600 -15.695600 5.926120 9.629480 -6.418760 2.000000 -2.000000 0.000000 -105.105003 -71.605301 -76.693802 76.563004 -0.246619 0.133023 0.046051 0.011529 -129.294998 -2.000000 2.000000 0.000000 -107.391998 -175.779999 0.623991 -102.842003 0.186631 0.114020 -0.058742 0.037072 -150.281006 -32.955482 17.609270 16.803619 86.094696 -1.189700 4.729567 -12.792532 -2.988600 -0.573752 -62.496559 2.126905 15.233379 82.107559 0.990235 -4.793352 -6.530565 2.015074 -0.905667 
-51.269592 35.798485 0.240437 8.763100 -9.083980 47.852901 -16.106899 0.376274 -7.976290 18.145000 7.210470 -4.149360 -4.974370 11.523500 -13.597000 6.180060 9.198070 -5.542570 2.000000 -2.000000 0.000000 -108.787003 -67.918900 -69.413803 72.393097 -0.256204 0.130362 0.047525 0.020569 -126.023003 -2.000000 2.000000 0.000000 -104.735001 -171.029999 2.145140 -96.387100 0.200726 0.116407 -0.062226 0.049496 -154.889999 -26.384220 16.149467 19.578194 79.264786 -0.421546 4.578904 -14.081704 -0.151434 0.292701 -62.782745 6.261726 19.560865 73.933319 0.307823 -4.616704 -8.826831 -2.715903 -1.718041 
-50.972008 35.883976 0.101829 9.179410 -10.858600 47.162498 -16.928400 0.705726 -9.817730 19.005899 8.629700 -4.919080 -2.962170 9.498920 -10.957900 6.636650 8.277060 -4.436290 2.000000 -2.000000 0.000000 -113.181000 -65.415298 -63.091400 68.359901 -0.265267 0.127132 0.048375 0.024694 -124.518997 -2.000000 2.000000 0.000000 -104.567001 -167.679001 2.878910 -90.078598 0.214675 0.117195 -0.075699 0.059728 -158.776993 -21.007269 14.174138 22.399204 70.842194 0.386857 4.310665 -20.099743 2.259599 1.370597 -62.998264 9.255262 23.767942 62.694691 -0.533396 -4.272750 -10.226803 -3.102690 -2.078686 
-50.688805 35.848366 -0.051044 10.591600 -13.562900 47.663898 -17.604200 0.993950 -12.544700 21.042801 10.165700 -5.958740 -2.561020 8.083290 -8.920720 6.641620 7.701410 -3.513700 2.000000 -2.000000 0.000000 -117.611000 -63.692200 -58.400799 64.150902 -0.274458 0.123090 0.049433 0.029192 -122.869003 -2.000000 2.000000 0.000000 -105.972000 -165.684006 3.713800 -85.225098 0.226230 0.136251 -0.082423 0.074327 -164.518997 -18.633177 11.703105 23.573195 61.630230 1.113144 3.985722 -29.339853 3.344858 2.577948 -63.314358 10.724084 29.447405 49.689049 -1.318053 -3.700497 -10.546957 -2.019367 -2.209855 
-50.386166 35.921608 -0.338550 12.062800 -15.095100 52.476700 -17.818001 0.738443 -16.712700 22.980900 11.796400 -7.725260 -3.628110 8.124390 -7.645570 6.395340 7.713100 -2.795380 2.000000 -2.000000 0.000000 -122.852997 -62.954899 -54.726898 59.775902 -0.283671 0.118185 0.049439 0.029219 -122.859001 -2.000000 2.000000 0.000000 -107.788002 -164.494995 2.949140 -82.002502 0.233871 0.135395 -0.088783 0.085397 -169.080002 -17.759645 7.704005 20.575092 53.111553 1.690631 3.610212 -36.194012 3.034295 2.839046 -62.304520 7.935508 37.472954 38.613518 -1.860650 -3.071208 -6.616013 -1.247638 -2.426059 
-50.131153 36.232338 -0.610524 13.359200 -14.440100 57.206600 -17.837900 -0.758108 -19.080400 23.146400 11.355900 -9.048730 -4.741870 10.559600 -8.251570 6.304100 8.650590 -2.838660 2.000000 -2.000000 0.000000 -125.754997 -61.687199 -53.406799 56.494598 -0.290319 0.114053 0.048340 0.024533 -124.578003 -2.000000 2.000000 0.000000 -105.978996 -161.968002 -2.330500 -79.238800 0.240377 0.134320 -0.085404 0.079771 -166.735992 -16.133823 3.722178 18.375628 47.161385 2.022396 3.318193 -38.464729 2.771928 2.663007 -59.723824 4.395885 46.580322 33.993275 -2.161687 -2.716106 -2.023996 5.877348 -1.740917 
-50.132053 36.476444 -0.859113 14.012500 -14.068800 59.516399 -17.628500 -1.170300 -19.689699 23.603201 11.215000 -9.367810 -6.975920 12.180100 -9.823110 5.796640 9.532820 -3.357030 2.000000 -2.000000 0.000000 -128.046997 -61.402302 -54.597801 54.678200 -0.293895 0.111604 0.047184 0.018741 -126.686996 -2.000000 2.000000 0.000000 77.300797 -19.924200 168.602005 -76.846199 0.245961 0.133137 -0.079269 0.067955 -161.979996 -15.861257 2.178047 18.189322 45.041599 2.084553 3.200362 -37.524204 3.870263 3.493943 -58.020981 2.663749 51.445957 34.545174 -2.240170 -2.698317 -1.553623 5.199718 -1.652232 
-50.188339 36.779648 -1.200347 13.123100 -13.861900 62.144402 -17.380899 -0.573015 -19.871700 23.517000 11.547500 -9.385680 -9.490950 11.552500 -11.370500 4.945700 9.674520 -4.081560 2.000000 -2.000000 0.000000 -128.451996 -61.404701 -60.314201 55.010300 -0.293247 0.112060 0.046609 0.015344 -127.917999 -2.000000 2.000000 0.000000 79.707298 -21.493401 158.705994 -76.865799 0.245916 0.133148 -0.080221 0.069955 -162.770996 -16.237623 2.219937 16.008543 45.375275 2.073931 3.217366 -35.434250 3.226382 2.612921 -56.346592 1.522872 52.131382 36.159401 -2.285578 -2.756510 -5.532310 -6.376530 -3.024021 
-50.103409 37.136883 -1.640116 12.268600 -13.514500 62.431000 -17.237700 0.267898 -18.953501 23.086201 11.307600 -8.896370 -9.523260 9.714980 -11.634800 4.774920 9.118680 -4.391640 2.000000 -2.000000 0.000000 -125.785004 -62.020599 -69.303902 57.031799 -0.289247 0.114755 0.045173 0.003400 -132.214996 -2.000000 2.000000 0.000000 80.051201 -22.033800 151.199005 -77.744698 0.243870 0.133609 -0.083035 0.075487 -164.988007 -15.787882 2.129665 14.829958 45.225658 2.106305 3.185337 -33.821892 2.472550 1.768171 -56.656963 0.319472 44.777416 36.276413 -2.291817 -2.756032 -3.800614 -1.636804 -2.439413 
-49.913895 37.527000 -2.029492 11.975600 -12.025700 61.042400 -16.640100 0.534513 -17.525000 23.395901 10.358600 -8.189790 -8.488350 8.379850 -11.533800 4.851880 8.620350 -4.562090 2.000000 -2.000000 0.000000 -120.003998 -64.074402 -79.994102 58.789600 -0.285694 0.116983 0.044736 -0.005742 -138.973007 -2.000000 2.000000 0.000000 76.404602 -20.847300 148.850998 -78.115799 0.243004 0.133794 -0.086770 0.082108 -167.703003 -13.606720 0.988777 15.215655 43.886192 2.225659 3.106694 -32.028309 2.432592 1.490615 -56.185223 -1.030971 36.111828 36.552525 -2.270211 -2.772715 -5.839258 4.299505 -1.756463 
